<svg width="16" height="16" viewBox="0 0 16 16" fill="none" xmlns="http://www.w3.org/2000/svg">
<path d="M13.943 3.19995H10.6744C9.97295 3.19995 9.28724 3.39261 8.69724 3.75606L8.0001 4.18373L7.30295 3.75606C6.71354 3.39268 6.02706 3.19959 5.32581 3.19995H2.05724C1.80438 3.19995 1.6001 3.39534 1.6001 3.63718V11.3981C1.6001 11.6399 1.80438 11.8353 2.05724 11.8353H5.32581C6.02724 11.8353 6.71295 12.028 7.30295 12.3914L7.93724 12.7822C7.95581 12.7931 7.97724 12.8 7.99867 12.8C8.0201 12.8 8.04153 12.7945 8.0601 12.7822L8.69438 12.3914C9.28581 12.028 9.97295 11.8353 10.6744 11.8353H13.943C14.1958 11.8353 14.4001 11.6399 14.4001 11.3981V3.63718C14.4001 3.39534 14.1958 3.19995 13.943 3.19995ZM6.45724 8.56289C6.45724 8.61891 6.41153 8.66537 6.35581 8.66537H3.70153C3.64581 8.66537 3.6001 8.61891 3.6001 8.56289V7.94803C3.6001 7.89201 3.64581 7.84555 3.70153 7.84555H6.35438C6.4101 7.84555 6.45581 7.89201 6.45581 7.94803V8.56289H6.45724ZM6.45724 6.64999C6.45724 6.70601 6.41153 6.75247 6.35581 6.75247H3.70153C3.64581 6.75247 3.6001 6.70601 3.6001 6.64999V6.03514C3.6001 5.97911 3.64581 5.93266 3.70153 5.93266H6.35438C6.4101 5.93266 6.45581 5.97911 6.45581 6.03514V6.64999H6.45724ZM12.4001 8.56289C12.4001 8.61891 12.3544 8.66537 12.2987 8.66537H9.64438C9.58867 8.66537 9.54295 8.61891 9.54295 8.56289V7.94803C9.54295 7.89201 9.58867 7.84555 9.64438 7.84555H12.2972C12.353 7.84555 12.3987 7.89201 12.3987 7.94803V8.56289H12.4001ZM12.4001 6.64999C12.4001 6.70601 12.3544 6.75247 12.2987 6.75247H9.64438C9.58867 6.75247 9.54295 6.70601 9.54295 6.64999V6.03514C9.54295 5.97911 9.58867 5.93266 9.64438 5.93266H12.2972C12.353 5.93266 12.3987 5.97911 12.3987 6.03514V6.64999H12.4001Z" fill="#9497A1"/>
</svg>
