<svg width="160" height="26" viewBox="0 0 160 26" fill="none" xmlns="http://www.w3.org/2000/svg">
<path d="M0.200012 12.372C0.200012 8.6554 2.49748 5.6437 6.63797 5.6437C10.7785 5.6437 12.5962 8.15559 12.5962 11.462C12.5966 11.9689 12.5544 12.4748 12.47 12.9743H3.28013C3.45686 15.153 4.64347 16.5371 6.91569 16.5371C9.54137 16.5371 10.122 15.153 10.122 15.153H12.3312V16.8318C12.3312 16.8318 11.0688 19.113 6.87781 19.113C2.45645 19.113 0.200012 16.2679 0.200012 12.372ZM9.61711 10.8597C9.61711 9.37308 8.67035 8.19403 6.63797 8.19403C4.60559 8.19403 3.70933 9.29619 3.38112 10.8597H9.61711Z" fill="#185CFF"/>
<path d="M13.6219 16.7293V15.0376H15.7931C15.8184 15.1914 16.6768 16.6396 18.8985 16.6396C20.5648 16.6396 21.1076 16.0757 21.1076 15.2299C21.1076 14.179 20.0725 13.9227 18.7092 13.6279L17.2448 13.346C15.3261 13.0256 13.8365 11.9619 13.8365 9.62939C13.8365 7.42509 15.5533 5.60525 18.6334 5.60525C21.4358 5.60525 22.7739 6.70741 23.3041 7.848V9.53968H21.1581C21.1329 9.41152 20.5269 8.05306 18.6082 8.05306C17.1943 8.05306 16.6642 8.66821 16.6642 9.48842C16.6642 10.3086 17.4216 10.7444 18.5577 10.975L20.022 11.257C22.0922 11.6415 23.91 12.4873 23.91 14.9223C23.91 17.306 22.168 19.0874 18.8859 19.0874C15.1367 19.113 13.7734 17.0881 13.6219 16.7293Z" fill="#185CFF"/>
<path d="M26.1602 14.3712V8.52723H24.1656V5.93845H26.2359L26.4126 2.70889H29.215V5.93845H34.2139V8.52723H29.215V14.1661C29.215 15.6528 29.6947 16.4986 31.0076 16.4986C32.3709 16.4986 32.5224 15.499 32.5224 15.3708H34.6463V17.0881C34.1666 18.0493 33.1062 19.113 30.8845 19.113C27.8012 19.113 26.1602 17.3957 26.1602 14.3712Z" fill="#185CFF"/>
<path d="M35.5173 0.120117H38.7741V3.27279H35.5173V0.120117ZM35.6183 5.93846H38.6732V18.8055H35.6183V5.93846Z" fill="#185CFF"/>
<path d="M40.8791 5.93847H43.6847L43.8614 7.57888C44.1995 6.97907 44.6887 6.48135 45.2787 6.13678C45.8688 5.79221 46.5385 5.61319 47.2192 5.61807C49.0875 5.61807 50.2489 6.48954 50.8548 7.77111C51.2473 7.09749 51.8101 6.54266 52.4848 6.1641C53.1595 5.78554 53.9217 5.59702 54.6923 5.61807C57.8229 5.61807 59.0348 7.97617 59.0348 10.8213V18.8055H55.9547V11.116C55.9547 9.47561 55.374 8.32219 53.8339 8.32219C52.0666 8.32219 51.4607 9.75755 51.4607 10.9879V18.8055H48.4563V11.0648C48.4563 9.42434 47.8504 8.32219 46.3356 8.32219C44.5178 8.32219 43.9371 9.86008 43.9371 11.3211V18.8055H40.8791V5.93847Z" fill="#185CFF"/>
<path d="M60.4328 15.1145C60.4328 12.8333 62.0108 11.2185 65.7094 11.2185C66.6021 11.2243 67.4913 11.3318 68.3604 11.5389V10.8341C68.3604 9.11675 67.6282 8.24529 65.9114 8.24529C63.9927 8.24529 63.3363 9.62938 63.3363 9.62938H61.1555V7.93771C61.1555 7.93771 62.3169 5.63088 65.9777 5.63088C69.5628 5.63088 71.431 7.42508 71.431 10.911V18.8054H68.8054L68.5276 17.0369C68.1164 17.6933 67.5441 18.2298 66.8668 18.5938C66.1896 18.9578 65.4308 19.1367 64.6649 19.113C61.8467 19.113 60.4328 17.3188 60.4328 15.1145ZM68.3604 14.1918V13.5766C67.5271 13.3614 66.6703 13.2537 65.8104 13.2562C63.9927 13.2562 63.4625 14.0764 63.4625 14.9479C63.4625 16.127 64.1694 16.6396 65.4317 16.6396C67.3252 16.6524 68.3604 15.2683 68.3604 14.1918Z" fill="#185CFF"/>
<path d="M74.1672 14.3712V8.52723H72.1727V5.93845H74.2429L74.4102 2.70889H77.2126V5.93845H82.2115V8.52723H77.222V14.1661C77.222 15.6528 77.7017 16.4986 79.0146 16.4986C80.3779 16.4986 80.5294 15.499 80.5294 15.3708H82.6501V17.0881C82.1704 18.0493 81.1101 19.113 78.8884 19.113C75.8082 19.113 74.1672 17.3957 74.1672 14.3712Z" fill="#185CFF"/>
<path d="M82.9594 12.372C82.9594 8.6554 85.2569 5.6437 89.3974 5.6437C93.5379 5.6437 95.3556 8.15559 95.3556 11.462C95.356 11.9689 95.3138 12.4748 95.2294 12.9743H86.0396C86.2163 15.153 87.4029 16.5371 89.6751 16.5371C92.3008 16.5371 92.8814 15.153 92.8814 15.153H95.0906V16.8318C95.0906 16.8318 93.8282 19.113 89.6372 19.113C85.2064 19.113 82.9594 16.2679 82.9594 12.372ZM92.3765 10.8597C92.3765 9.37308 91.4297 8.19403 89.3974 8.19403C87.365 8.19403 86.4687 9.29619 86.1405 10.8597H92.3765Z" fill="#185CFF"/>
<path d="M96.3813 16.7293V15.0376H98.5525C98.5778 15.1914 99.4362 16.6396 101.658 16.6396C103.324 16.6396 103.883 16.0757 103.883 15.2299C103.883 14.179 102.848 13.9227 101.484 13.6279L100.017 13.346C98.0981 13.0256 96.6085 11.9619 96.6085 9.62939C96.6085 7.42509 98.3285 5.60525 101.405 5.60525C104.208 5.60525 105.546 6.70741 106.079 7.848V9.53968H103.93C103.905 9.41152 103.299 8.05306 101.38 8.05306C99.9695 8.05306 99.4362 8.66821 99.4362 9.48842C99.4362 10.3086 100.197 10.7444 101.33 10.975L102.797 11.257C104.864 11.6415 106.685 12.4873 106.685 14.9223C106.685 17.306 104.943 19.0874 101.658 19.0874C97.8961 19.113 96.5328 17.0881 96.3813 16.7293Z" fill="#185CFF"/>
<path d="M108.908 22.4195V20.7278H111.152C111.152 20.7278 111.834 22.7014 114.535 22.7014C117.11 22.7014 118.376 20.9329 118.376 18.1647V16.8575C117.464 18.1903 115.974 19.0105 114.081 19.0105C110.47 19.0105 108.274 15.986 108.274 12.3463C108.274 8.62977 110.483 5.61807 114.106 5.61807C114.95 5.59273 115.786 5.78518 116.537 6.17743C117.287 6.56967 117.928 7.14888 118.398 7.86082L118.631 5.93846H121.472V18.1134C121.472 22.6245 118.818 25.4824 114.601 25.4824C110.12 25.4824 108.908 22.4195 108.908 22.4195ZM118.376 12.3207C118.376 10.1164 117.012 8.32219 114.863 8.32219C112.515 8.32219 111.329 10.1164 111.329 12.3207C111.329 14.525 112.515 16.3448 114.863 16.3448C117.016 16.3448 118.379 14.5506 118.379 12.3207H118.376Z" fill="#185CFF"/>
<path d="M123.583 13.7561V5.93847H126.638V13.3716C126.638 15.1658 127.345 16.4217 129.137 16.4217C131.309 16.4217 131.978 14.8198 131.978 13.3716V5.93847H135.058V18.8055H132.217L132.041 17.0882C131.628 17.7221 131.065 18.24 130.403 18.594C129.741 18.948 129.002 19.1265 128.254 19.113C124.845 19.113 123.583 16.6781 123.583 13.7561Z" fill="#185CFF"/>
<path d="M137.298 5.93847H140.101L140.277 7.63015C140.626 6.99631 141.141 6.47285 141.765 6.11773C142.389 5.76261 143.097 5.58968 143.812 5.61808C145.706 5.61808 146.741 6.64334 146.968 7.95054V9.69348H144.759C144.734 9.69348 144.532 8.25812 142.764 8.25812C141.123 8.25812 140.341 9.61659 140.341 11.4364V18.8055H137.286L137.298 5.93847Z" fill="#185CFF"/>
<path d="M147.713 13.7561V5.93847H150.768V13.3716C150.768 15.1658 151.475 16.4217 153.267 16.4217C155.438 16.4217 156.107 14.8198 156.107 13.3716V5.93847H159.187V18.8055H156.347L156.17 17.0882C155.758 17.7221 155.195 18.24 154.533 18.594C153.871 18.948 153.132 19.1265 152.383 19.113C148.975 19.113 147.713 16.6781 147.713 13.7561Z" fill="#185CFF"/>
</svg>
