<svg width="160" height="26" viewBox="0 0 160 26" fill="none" xmlns="http://www.w3.org/2000/svg">
<path d="M0.199219 12.372C0.199219 8.6554 2.49668 5.6437 6.63718 5.6437C10.7777 5.6437 12.5954 8.15559 12.5954 11.462C12.5958 11.9689 12.5536 12.4748 12.4692 12.9743H3.27934C3.45607 15.153 4.64268 16.5371 6.9149 16.5371C9.54058 16.5371 10.1212 15.153 10.1212 15.153H12.3304V16.8318C12.3304 16.8318 11.068 19.113 6.87702 19.113C2.45566 19.113 0.199219 16.2679 0.199219 12.372ZM9.61632 10.8597C9.61632 9.37308 8.66955 8.19403 6.63718 8.19403C4.6048 8.19403 3.70853 9.29619 3.38032 10.8597H9.61632Z" fill="#F1F6FA"/>
<path d="M13.6211 16.7293V15.0376H15.7923C15.8176 15.1914 16.676 16.6396 18.8977 16.6396C20.564 16.6396 21.1068 16.0757 21.1068 15.2299C21.1068 14.179 20.0717 13.9227 18.7084 13.6279L17.244 13.346C15.3253 13.0256 13.8357 11.9619 13.8357 9.62939C13.8357 7.42509 15.5525 5.60525 18.6326 5.60525C21.435 5.60525 22.7731 6.70741 23.3033 7.848V9.53968H21.1573C21.1321 9.41152 20.5261 8.05306 18.6074 8.05306C17.1935 8.05306 16.6634 8.66821 16.6634 9.48842C16.6634 10.3086 17.4208 10.7444 18.5569 10.975L20.0212 11.257C22.0915 11.6415 23.9092 12.4873 23.9092 14.9223C23.9092 17.306 22.1672 19.0874 18.8851 19.0874C15.1359 19.113 13.7726 17.0881 13.6211 16.7293Z" fill="#F1F6FA"/>
<path d="M26.1594 14.3712V8.52723H24.1648V5.93845H26.2351L26.4118 2.70889H29.2142V5.93845H34.2131V8.52723H29.2142V14.1661C29.2142 15.6528 29.6939 16.4986 31.0068 16.4986C32.3701 16.4986 32.5216 15.499 32.5216 15.3708H34.6455V17.0881C34.1658 18.0493 33.1054 19.113 30.8837 19.113C27.8004 19.113 26.1594 17.3957 26.1594 14.3712Z" fill="#F1F6FA"/>
<path d="M35.5165 0.120117H38.7734V3.27279H35.5165V0.120117ZM35.6175 5.93846H38.6724V18.8055H35.6175V5.93846Z" fill="#F1F6FA"/>
<path d="M40.8783 5.93847H43.6839L43.8606 7.57888C44.1987 6.97907 44.6879 6.48135 45.278 6.13678C45.868 5.79221 46.5378 5.61319 47.2184 5.61807C49.0867 5.61807 50.2481 6.48954 50.854 7.77111C51.2465 7.09749 51.8093 6.54266 52.484 6.1641C53.1587 5.78554 53.9209 5.59702 54.6915 5.61807C57.8222 5.61807 59.034 7.97617 59.034 10.8213V18.8055H55.9539V11.116C55.9539 9.47561 55.3732 8.32219 53.8331 8.32219C52.0659 8.32219 51.4599 9.75755 51.4599 10.9879V18.8055H48.4555V11.0648C48.4555 9.42434 47.8496 8.32219 46.3348 8.32219C44.517 8.32219 43.9364 9.86008 43.9364 11.3211V18.8055H40.8783V5.93847Z" fill="#F1F6FA"/>
<path d="M60.432 15.1145C60.432 12.8333 62.01 11.2185 65.7087 11.2185C66.6013 11.2243 67.4905 11.3318 68.3596 11.5389V10.8341C68.3596 9.11675 67.6274 8.24529 65.9106 8.24529C63.9919 8.24529 63.3355 9.62938 63.3355 9.62938H61.1548V7.93771C61.1548 7.93771 62.3161 5.63088 65.9769 5.63088C69.562 5.63088 71.4302 7.42508 71.4302 10.911V18.8054H68.8046L68.5268 17.0369C68.1156 17.6933 67.5433 18.2298 66.8661 18.5938C66.1888 18.9578 65.43 19.1367 64.6641 19.113C61.8459 19.113 60.432 17.3188 60.432 15.1145ZM68.3596 14.1918V13.5766C67.5263 13.3614 66.6695 13.2537 65.8096 13.2562C63.9919 13.2562 63.4617 14.0764 63.4617 14.9479C63.4617 16.127 64.1686 16.6396 65.4309 16.6396C67.3245 16.6524 68.3596 15.2683 68.3596 14.1918Z" fill="#F1F6FA"/>
<path d="M74.1664 14.3712V8.52723H72.1719V5.93845H74.2421L74.4094 2.70889H77.2118V5.93845H82.2107V8.52723H77.2213V14.1661C77.2213 15.6528 77.7009 16.4986 79.0138 16.4986C80.3771 16.4986 80.5286 15.499 80.5286 15.3708H82.6493V17.0881C82.1696 18.0493 81.1093 19.113 78.8876 19.113C75.8074 19.113 74.1664 17.3957 74.1664 14.3712Z" fill="#F1F6FA"/>
<path d="M82.9586 12.372C82.9586 8.6554 85.2561 5.6437 89.3966 5.6437C93.5371 5.6437 95.3549 8.15559 95.3549 11.462C95.3552 11.9689 95.313 12.4748 95.2286 12.9743H86.0388C86.2155 15.153 87.4021 16.5371 89.6743 16.5371C92.3 16.5371 92.8807 15.153 92.8807 15.153H95.0898V16.8318C95.0898 16.8318 93.8274 19.113 89.6364 19.113C85.2056 19.113 82.9586 16.2679 82.9586 12.372ZM92.3757 10.8597C92.3757 9.37308 91.429 8.19403 89.3966 8.19403C87.3642 8.19403 86.4679 9.29619 86.1397 10.8597H92.3757Z" fill="#F1F6FA"/>
<path d="M96.3805 16.7293V15.0376H98.5517C98.577 15.1914 99.4354 16.6396 101.657 16.6396C103.323 16.6396 103.882 16.0757 103.882 15.2299C103.882 14.179 102.847 13.9227 101.484 13.6279L100.016 13.346C98.0973 13.0256 96.6077 11.9619 96.6077 9.62939C96.6077 7.42509 98.3277 5.60525 101.405 5.60525C104.207 5.60525 105.545 6.70741 106.078 7.848V9.53968H103.929C103.904 9.41152 103.298 8.05306 101.379 8.05306C99.9687 8.05306 99.4354 8.66821 99.4354 9.48842C99.4354 10.3086 100.196 10.7444 101.329 10.975L102.796 11.257C104.863 11.6415 106.684 12.4873 106.684 14.9223C106.684 17.306 104.942 19.0874 101.657 19.0874C97.8953 19.113 96.532 17.0881 96.3805 16.7293Z" fill="#F1F6FA"/>
<path d="M108.907 22.4195V20.7278H111.151C111.151 20.7278 111.833 22.7014 114.534 22.7014C117.109 22.7014 118.375 20.9329 118.375 18.1647V16.8575C117.463 18.1903 115.973 19.0105 114.08 19.0105C110.47 19.0105 108.273 15.986 108.273 12.3463C108.273 8.62977 110.482 5.61807 114.105 5.61807C114.949 5.59273 115.785 5.78518 116.536 6.17743C117.287 6.56967 117.927 7.14888 118.397 7.86082L118.631 5.93846H121.471V18.1134C121.471 22.6245 118.817 25.4824 114.601 25.4824C110.119 25.4824 108.907 22.4195 108.907 22.4195ZM118.375 12.3207C118.375 10.1164 117.012 8.32219 114.863 8.32219C112.515 8.32219 111.328 10.1164 111.328 12.3207C111.328 14.525 112.515 16.3448 114.863 16.3448C117.015 16.3448 118.378 14.5506 118.378 12.3207H118.375Z" fill="#F1F6FA"/>
<path d="M123.582 13.7561V5.93847H126.637V13.3716C126.637 15.1658 127.344 16.4217 129.136 16.4217C131.308 16.4217 131.977 14.8198 131.977 13.3716V5.93847H135.057V18.8055H132.217L132.04 17.0882C131.628 17.7221 131.064 18.24 130.402 18.594C129.74 18.948 129.001 19.1265 128.253 19.113C124.845 19.113 123.582 16.6781 123.582 13.7561Z" fill="#F1F6FA"/>
<path d="M137.298 5.93847H140.1L140.277 7.63015C140.626 6.99631 141.14 6.47285 141.764 6.11773C142.388 5.76261 143.097 5.58968 143.811 5.61808C145.705 5.61808 146.74 6.64334 146.967 7.95054V9.69348H144.758C144.733 9.69348 144.531 8.25812 142.764 8.25812C141.122 8.25812 140.34 9.61659 140.34 11.4364V18.8055H137.285L137.298 5.93847Z" fill="#F1F6FA"/>
<path d="M147.712 13.7561V5.93847H150.767V13.3716C150.767 15.1658 151.474 16.4217 153.266 16.4217C155.437 16.4217 156.107 14.8198 156.107 13.3716V5.93847H159.187V18.8055H156.346L156.17 17.0882C155.757 17.7221 155.194 18.24 154.532 18.594C153.87 18.948 153.131 19.1265 152.383 19.113C148.974 19.113 147.712 16.6781 147.712 13.7561Z" fill="#F1F6FA"/>
</svg>
