<svg width="14" height="11" viewBox="0 0 14 11" fill="none" xmlns="http://www.w3.org/2000/svg">
<path d="M13.2 1.12765C13.4462 1.34625 13.5899 1.64773 13.5995 1.96581C13.6091 2.28388 13.4838 2.59252 13.2511 2.82384L6.00893 10.0247C5.89155 10.1412 5.7505 10.2344 5.59411 10.2988C5.43773 10.3633 5.26917 10.3976 5.0984 10.3999C4.92764 10.4021 4.75813 10.3722 4.59988 10.3119C4.44164 10.2515 4.29788 10.1621 4.17709 10.0487L0.343008 6.44826C0.117258 6.22076 -0.00564269 5.91985 0.000199111 5.60893C0.00604091 5.29801 0.140169 5.00136 0.374326 4.78148C0.608482 4.56159 0.924385 4.43564 1.25548 4.43015C1.58658 4.42466 1.90701 4.54008 2.14929 4.75207L5.05467 7.47878L11.3937 1.17565C11.6265 0.944424 11.9475 0.809471 12.2862 0.800469C12.6249 0.791467 12.9536 0.909152 13.2 1.12765Z" fill="#C9DCEC"/>
</svg>
