<svg width="17" height="13" viewBox="0 0 17 13" fill="none" xmlns="http://www.w3.org/2000/svg">
<path d="M16.4999 0.909577C16.8077 1.18283 16.9874 1.55968 16.9994 1.95728C17.0113 2.35487 16.8547 2.74066 16.5638 3.02982L7.51116 12.0309C7.36444 12.1765 7.18813 12.293 6.99264 12.3736C6.79716 12.4541 6.58646 12.4971 6.373 12.4999C6.15955 12.5027 5.94766 12.4652 5.74985 12.3898C5.55205 12.3144 5.37235 12.2026 5.22136 12.0609L0.42876 7.56034C0.146572 7.27596 -0.00705336 6.89983 0.000248889 6.51118C0.00755114 6.12253 0.175211 5.75172 0.467907 5.47686C0.760603 5.202 1.15548 5.04456 1.56935 5.0377C1.98322 5.03085 2.38377 5.17511 2.68661 5.4401L6.31833 8.84849L14.2421 0.969584C14.5331 0.680545 14.9344 0.511854 15.3578 0.500601C15.7812 0.489348 16.192 0.636455 16.4999 0.909577Z" fill="#185CFF"/>
</svg>
